<svg width="51" height="60" viewBox="0 0 51 60" fill="none" xmlns="http://www.w3.org/2000/svg">
<path d="M38.7812 35V26.875H31.875V23.125H38.7812V15H41.9688V23.125H48.875V26.875H41.9688V35H38.7812ZM19.125 29.9375C16.7875 29.9375 14.875 29.0625 13.3875 27.3125C11.9 25.5625 11.1562 23.3125 11.1562 20.5625C11.1562 17.8125 11.9 15.5625 13.3875 13.8125C14.875 12.0625 16.7875 11.1875 19.125 11.1875C21.4625 11.1875 23.375 12.0625 24.8625 13.8125C26.35 15.5625 27.0938 17.8125 27.0938 20.5625C27.0938 23.3125 26.35 25.5625 24.8625 27.3125C23.375 29.0625 21.4625 29.9375 19.125 29.9375V29.9375ZM2.125 50V44.125C2.125 42.6667 2.4349 41.3437 3.05469 40.1562C3.67448 38.9687 4.56875 38.0833 5.7375 37.5C8.39375 36.125 10.7578 35.1562 12.8297 34.5937C14.9016 34.0312 17 33.75 19.125 33.75C21.25 33.75 23.3396 34.0312 25.3937 34.5937C27.4479 35.1562 29.8031 36.125 32.4594 37.5C33.6281 38.125 34.5312 39.0208 35.1687 40.1875C35.8062 41.3542 36.125 42.6667 36.125 44.125V50H2.125ZM5.3125 46.25H32.9375V44.125C32.9375 43.4583 32.7781 42.8229 32.4594 42.2188C32.1406 41.6146 31.7156 41.1667 31.1844 40.875C28.6698 39.5 26.5448 38.5938 24.8094 38.1563C23.074 37.7188 21.1792 37.5 19.125 37.5C17.0708 37.5 15.1672 37.7188 13.4141 38.1563C11.6609 38.5938 9.52708 39.5 7.0125 40.875C6.48125 41.1667 6.0651 41.6146 5.76406 42.2188C5.46302 42.8229 5.3125 43.4583 5.3125 44.125V46.25ZM19.125 26.1875C20.5062 26.1875 21.6484 25.6562 22.5516 24.5937C23.4547 23.5312 23.9062 22.1875 23.9062 20.5625C23.9062 18.9375 23.4547 17.5938 22.5516 16.5313C21.6484 15.4688 20.5062 14.9375 19.125 14.9375C17.7438 14.9375 16.6016 15.4688 15.6984 16.5313C14.7953 17.5938 14.3438 18.9375 14.3438 20.5625C14.3438 22.1875 14.7953 23.5312 15.6984 24.5937C16.6016 25.6562 17.7438 26.1875 19.125 26.1875Z" fill="green"/>
</svg>
